<?xml version="1.0" standalone="no"?>
<!DOCTYPE svg PUBLIC "-//W3C//DTD SVG 20010904//EN"
 "http://www.w3.org/TR/2001/REC-SVG-20010904/DTD/svg10.dtd">
<svg version="1.0" xmlns="http://www.w3.org/2000/svg"
 width="759.000000pt" height="759.000000pt" viewBox="0 0 759.000000 759.000000"
 preserveAspectRatio="xMidYMid meet">

<g transform="translate(0.000000,759.000000) scale(0.100000,-0.100000)"
fill="#000000" stroke="none">
<path d="M3835 7504 c-291 -30 -527 -114 -733 -261 -146 -104 -202 -189 -202
-304 l0 -56 73 -70 c155 -150 404 -279 645 -333 305 -67 603 -66 845 5 208 60
364 182 444 346 20 43 25 67 24 117 -3 114 -61 246 -147 338 -43 45 -142 107
-232 144 -133 56 -231 72 -467 75 -115 1 -228 1 -250 -1z"/>
<path d="M4944 7368 c3 -24 30 -90 59 -147 l52 -105 -1 -125 c-1 -151 -14
-197 -107 -367 -49 -90 -66 -114 -84 -114 -16 0 -25 -9 -33 -35 -9 -29 -17
-35 -39 -35 -15 0 -43 -12 -62 -26 -62 -46 -216 -133 -306 -172 -120 -53 -196
-78 -337 -112 -164 -40 -233 -49 -426 -56 -138 -5 -188 -3 -307 15 -389 58
-658 181 -861 394 -71 74 -138 203 -166 318 -17 71 -21 211 -7 272 11 46 -4
57 -80 57 -45 0 -66 -8 -149 -55 -293 -167 -503 -352 -585 -515 -64 -127 -70
-271 -15 -385 166 -344 952 -739 1750 -880 752 -132 1539 -80 2222 149 175 58
338 130 433 191 136 86 247 196 291 288 12 25 25 37 43 39 19 2 34 18 63 68
54 93 79 178 85 295 8 154 -9 211 -104 348 -176 253 -286 332 -688 495 -160
64 -630 242 -641 242 -4 0 -4 -19 0 -42z"/>
<path d="M6526 6328 c-37 -198 -56 -246 -148 -388 -176 -271 -431 -471 -832
-653 -500 -226 -1019 -356 -1626 -407 -164 -14 -591 -14 -761 0 -598 49 -1155
205 -1542 433 -305 180 -567 448 -709 724 -29 57 -55 103 -58 103 -3 0 -13
-13 -22 -28 -9 -15 -56 -81 -103 -146 -121 -165 -198 -289 -272 -441 -59 -122
-63 -134 -63 -200 1 -332 367 -732 935 -1022 446 -227 920 -367 1555 -457 789
-113 1095 -127 1620 -76 690 67 1303 210 1805 422 230 97 373 181 625 366 178
131 328 289 382 402 l31 65 -13 104 c-27 227 -72 346 -203 539 -83 122 -454
607 -500 654 -37 37 -94 40 -101 6z"/>
<path d="M7331 4695 c-100 -163 -320 -364 -571 -520 -118 -73 -476 -255 -630
-320 -218 -92 -617 -224 -770 -256 -665 -138 -956 -180 -1430 -209 -455 -27
-875 4 -1500 111 -373 65 -732 159 -1007 265 -65 25 -165 63 -223 85 -218 82
-488 232 -664 367 -34 26 -100 84 -147 128 -47 45 -123 109 -170 144 l-84 62
-13 -43 c-50 -174 -75 -422 -76 -749 -1 -336 11 -378 152 -516 312 -307 692
-529 1351 -788 756 -298 1725 -440 2707 -397 387 17 635 43 1014 107 681 115
1235 291 1727 547 156 82 233 133 338 227 131 115 142 127 169 182 42 85 49
200 43 678 -5 442 -14 557 -62 772 -27 118 -41 151 -77 186 l-25 22 -52 -85z"/>
<path d="M7184 2596 c-504 -323 -1062 -537 -1793 -686 -695 -143 -1032 -175
-1811 -174 -570 1 -703 7 -1045 54 -613 84 -985 170 -1448 334 -129 46 -538
213 -570 233 -15 9 -1 -206 18 -297 33 -151 158 -305 350 -432 125 -83 480
-270 658 -347 382 -166 847 -289 1399 -370 1153 -170 2215 -96 3109 215 147
51 483 189 535 219 43 25 128 116 235 250 207 261 465 755 523 1005 l14 60
-37 0 c-29 0 -60 -15 -137 -64z"/>
<path d="M5925 833 c-11 -3 -83 -24 -160 -48 -618 -194 -1212 -281 -1980 -292
-631 -9 -1025 23 -1691 137 -126 22 -236 40 -242 40 -7 0 -12 -9 -12 -19 0
-21 60 -57 307 -180 389 -194 813 -319 1281 -376 176 -22 554 -30 730 -16 163
13 383 48 539 87 434 106 1071 412 1291 620 l57 53 -50 -1 c-27 0 -59 -2 -70
-5z"/>
</g>
</svg>
