<?xml version="1.0" encoding="UTF-8"?>
<!-- Generator: visioncortex VTracer 0.6.3 -->
<svg version="1.1" xmlns="http://www.w3.org/2000/svg" width="1280" height="424">
<path d="M0 0 C422.4 0 844.8 0 1280 0 C1280 139.92 1280 279.84 1280 424 C857.6 424 435.2 424 0 424 C0 284.08 0 144.16 0 0 Z " fill="none" transform="translate(0,0)"/>
<path d="M0 0 C3 2 3 2 3.91 4.98 C4.27 6.78 4.27 6.78 4.62 8.62 C4.86 9.81 5.1 11 5.35 12.23 C6.49 18.85 7.16 25.26 7.17 31.98 C7.17 32.72 7.17 33.45 7.18 34.21 C7.18 35.75 7.19 37.3 7.19 38.84 C7.19 41.16 7.21 43.49 7.22 45.81 C7.31 68.87 7.31 68.87 2.88 74.88 C1.93 75.58 0.98 76.28 0 77 C-1.21 78.15 -2.42 79.29 -3.62 80.44 C-8.33 84.49 -13.45 87.26 -19 90 C-20.17 90.58 -21.34 91.16 -22.55 91.75 C-30.83 95.77 -39.22 99.21 -48 102 C-48.74 102.24 -49.48 102.47 -50.24 102.71 C-70.86 109.18 -91.96 113.26 -113.52 114.81 C-115.26 114.94 -117 115.09 -118.74 115.26 C-126.85 116.01 -134.92 116.24 -143.06 116.25 C-143.77 116.25 -144.47 116.25 -145.2 116.25 C-176.63 116.21 -207.15 112.16 -237.62 104.44 C-238.73 104.16 -239.84 103.88 -240.98 103.59 C-246.59 102.1 -251.82 100.37 -257.07 97.9 C-259.61 96.71 -262.23 95.81 -264.88 94.88 C-278.14 89.82 -290.98 82.98 -302 74 C-302.72 73.42 -303.45 72.83 -304.19 72.23 C-306.19 70.55 -308.11 68.81 -310 67 C-310.66 66.39 -311.33 65.77 -312.01 65.14 C-317.09 60 -318.04 56.1 -318 49 C-318.04 48.07 -318.07 47.14 -318.11 46.18 C-318.29 39.28 -317.78 32.48 -317.12 25.62 C-317.05 24.78 -316.97 23.94 -316.89 23.07 C-316.38 18.16 -315.51 13.69 -314 9 C-306.73 14.25 -306.73 14.25 -303.62 17.44 C-297.67 23.25 -290.39 27.45 -283.31 31.75 C-282.7 32.13 -282.08 32.5 -281.44 32.89 C-227.81 64.94 -152.72 64.68 -93.67 51.58 C-90.18 50.82 -86.67 50.15 -83.15 49.48 C-80.46 48.88 -77.93 47.94 -75.38 46.91 C-72.86 45.95 -70.32 45.13 -67.75 44.31 C-59.86 41.78 -52.45 38.64 -45 35 C-44.17 34.62 -43.35 34.25 -42.5 33.86 C-25.91 26.1 -11.03 14.57 0 0 Z " fill="#0F1012" transform="translate(358,159)"/>
<path d="M0 0 C3 0 3 0 4.66 1.59 C16.22 16.31 32.74 37.56 35.35 56.53 C34.63 61.63 30.3 65.27 27 69 C26.47 69.61 25.95 70.22 25.4 70.85 C15.08 82 1.01 89.64 -13 95 C-13.72 95.29 -14.44 95.59 -15.18 95.89 C-42.59 107.06 -71.56 111.55 -101 113 C-101.77 113.05 -102.54 113.09 -103.34 113.14 C-120.9 114.08 -138.61 111.22 -156 109 C-157.51 108.81 -157.51 108.81 -159.05 108.61 C-192.64 104.17 -236.68 90.65 -258.61 63.07 C-266.45 51.39 -266.45 51.39 -267 45 C-263.91 33.52 -256.47 22.85 -249.23 13.59 C-248.08 12.11 -247.04 10.56 -246 9 C-245.5 9.99 -245.01 10.98 -244.5 12 C-232.7 35.11 -212.84 47.62 -188.52 55.72 C-142.47 70.47 -85.75 66.4 -42 46 C-41.13 45.6 -40.26 45.2 -39.37 44.79 C-33.56 42 -28.23 38.77 -23 35 C-22.17 34.41 -21.35 33.83 -20.5 33.23 C-10.7 25.9 -2.12 15.37 -0.25 2.94 C-0.17 1.97 -0.08 1 0 0 Z " fill="#0F1012" transform="translate(321,90)"/>
<path d="M0 0 C1.15 -0.02 2.31 -0.03 3.49 -0.05 C8.85 -0.09 14.21 -0.13 19.57 -0.16 C22.37 -0.17 25.17 -0.2 27.97 -0.24 C51.79 -0.58 76.09 -0.38 94.32 16.94 C97.15 19.86 99.5 22.66 101.51 26.19 C101.94 26.95 102.37 27.7 102.81 28.47 C110.2 42.95 111.05 59.45 106.88 75.01 C104.8 81.14 101.89 85.48 97.51 90.19 C96.39 91.46 96.39 91.46 95.25 92.76 C89.46 99 83.46 103.1 75.51 106.19 C74.85 106.19 74.19 106.19 73.51 106.19 C76.18 111.91 79.19 116.73 83.07 121.69 C87.66 127.69 92.04 133.78 96.27 140.03 C100.41 146.11 104.73 152.07 109.09 157.99 C112.21 162.26 114.97 166.55 117.51 171.19 C115.26 173.44 110.27 172.52 107.26 172.57 C105.97 172.62 105.97 172.62 104.65 172.68 C100.48 172.74 98.23 172.72 94.8 170.22 C94.04 169.22 93.29 168.22 92.51 167.19 C92.01 166.55 91.52 165.9 91.01 165.24 C89.32 163 87.69 160.73 86.07 158.44 C85.52 157.68 84.97 156.92 84.41 156.14 C81.59 152.2 78.82 148.24 76.1 144.24 C75.6 143.51 75.1 142.78 74.59 142.03 C73.51 140.19 73.51 140.19 73.51 138.19 C72.85 138.19 72.19 138.19 71.51 138.19 C70.17 136.31 70.17 136.31 68.57 133.63 C65.04 127.89 61.14 122.51 57.06 117.15 C53.51 112.4 53.51 112.4 53.51 110.19 C40.31 110.19 27.11 110.19 13.51 110.19 C13.52 114.58 13.53 118.98 13.54 123.5 C13.55 126.99 13.55 130.49 13.56 133.98 C13.56 137.67 13.57 141.36 13.58 145.06 C13.59 148.61 13.6 152.16 13.6 155.71 C13.6 157.07 13.61 158.43 13.61 159.79 C13.62 161.69 13.62 163.58 13.62 165.48 C13.62 166.56 13.62 167.64 13.63 168.76 C13.51 171.19 13.51 171.19 12.51 172.19 C9.52 172.32 6.56 172.38 3.57 172.38 C2.73 172.39 1.89 172.4 1.03 172.42 C0.23 172.42 -0.57 172.42 -1.4 172.42 C-2.13 172.43 -2.87 172.43 -3.63 172.44 C-5.49 172.19 -5.49 172.19 -7.49 170.19 C-7.74 167.31 -7.74 167.31 -7.73 163.54 C-7.74 162.84 -7.74 162.15 -7.74 161.44 C-7.74 159.11 -7.73 156.78 -7.72 154.45 C-7.72 152.79 -7.72 151.12 -7.72 149.46 C-7.72 144.93 -7.71 140.39 -7.7 135.86 C-7.68 131.13 -7.68 126.4 -7.68 121.67 C-7.67 112.71 -7.66 103.74 -7.64 94.78 C-7.62 84.58 -7.6 74.37 -7.59 64.17 C-7.57 43.18 -7.54 22.19 -7.49 1.19 C-4.88 -0.11 -2.92 0.04 0 0 Z " fill="#0F1012" transform="translate(1124.493408203125,116.80712890625)"/>
<path d="M0 0 C0.64 0.55 1.28 1.11 1.94 1.68 C15.61 14.43 24.36 32 25.28 50.65 C25.62 62.24 24.91 73.71 19 84 C18.31 85.66 17.64 87.32 17 89 C16.34 89 15.68 89 15 89 C14.74 89.73 14.49 90.45 14.23 91.2 C12.93 94.16 11.4 96.31 9.38 98.81 C8.74 99.6 8.11 100.39 7.46 101.21 C6.98 101.8 6.5 102.39 6 103 C-0.11 97.08 -5.69 90.7 -11 84.06 C-11.68 83.24 -12.36 82.42 -13.06 81.57 C-15 79 -15 79 -16.44 76.18 C-18.39 72.76 -19.63 71.12 -23 69 C-30.87 67.46 -39.02 67.74 -47 68 C-41.86 74.84 -36.62 81.54 -31 88 C-23.61 96.52 -16.46 105.09 -11 115 C-24.4 123.63 -41.82 124.12 -57.23 121.64 C-61.17 120.69 -64.52 119.03 -68 117 C-69.71 116.04 -69.71 116.04 -71.46 115.05 C-90.15 104.02 -101.38 90.01 -107 69 C-111.14 49.99 -106.88 31.41 -97 15 C-88.71 2.52 -77.17 -6.23 -63 -11 C-62.12 -11.31 -61.25 -11.61 -60.34 -11.93 C-39.79 -18.62 -16.26 -14.4 0 0 Z " fill="none" transform="translate(1045,149)"/>
<path d="M0 0 C0.8 0.39 1.59 0.78 2.41 1.18 C10.15 5.23 17.07 10.59 23 17 C23.65 17.68 23.65 17.68 24.32 18.37 C37.21 32.46 45.34 50.19 48 69 C48.15 70 48.31 71.01 48.46 72.04 C51.2 94.79 42.91 116.69 29.18 134.45 C27 137 27 137 24.17 139.52 C21.74 141.77 21.74 141.77 21.95 144.5 C23.19 147.45 24.74 149.5 26.81 151.94 C35 161.8 35 161.8 35 165 C31.65 165.18 28.29 165.28 24.94 165.38 C23.99 165.43 23.05 165.48 22.08 165.53 C17.08 165.63 13.86 165.45 9.94 162.16 C7.94 160.19 6.58 158.37 5 156 C1.11 157.25 -2.68 158.65 -6.45 160.21 C-25.32 167.98 -43.23 168.44 -63 164 C-64.32 163.73 -64.32 163.73 -65.68 163.45 C-78.09 160.38 -89.48 152.22 -99 144 C-100.52 142.89 -100.52 142.89 -102.06 141.75 C-106.91 137.67 -110.38 132.14 -114 127 C-114.84 125.88 -114.84 125.88 -115.7 124.73 C-127.03 108.19 -129.72 82.49 -126.25 63.13 C-124.62 55.5 -122.33 48.06 -119 41 C-118.57 40.07 -118.14 39.15 -117.7 38.19 C-107.24 18.59 -89.95 3.46 -69 -4 C-45.61 -11.03 -22.17 -11.03 0 0 Z M-80 24 C-80.63 24.45 -81.26 24.9 -81.91 25.36 C-93.88 34.65 -102.71 50.72 -105.56 65.4 C-107.2 78.86 -106.12 91.11 -102 104 C-101.71 104.94 -101.42 105.89 -101.12 106.86 C-96.26 120.82 -83.78 131.37 -71.5 138.88 C-70.92 139.23 -70.34 139.59 -69.74 139.96 C-60.14 145.56 -51.22 147.69 -40.12 147.5 C-38.98 147.49 -37.84 147.48 -36.67 147.47 C-26.06 147.23 -17.3 146.09 -9 139 C-15.2 130.27 -21.76 121.93 -28.73 113.8 C-34.5 107.08 -39.92 100.27 -45 93 C-22.91 91.75 -22.91 91.75 -17.34 96.47 C-14.93 99.11 -13.03 102.05 -11.19 105.11 C-9.12 108.4 -6.63 111.35 -4.19 114.38 C-3.28 115.54 -2.37 116.71 -1.46 117.88 C1.27 121.34 4.08 124.69 7 128 C10.92 124.3 14.02 120.51 17 116 C17 115.34 17 114.68 17 114 C17.66 114 18.32 114 19 114 C19.29 113.27 19.58 112.55 19.88 111.8 C20.57 110.07 21.27 108.35 22 106.64 C22.33 105.85 22.66 105.06 23 104.25 C23.33 103.47 23.66 102.69 24 101.89 C30.2 83.97 27.74 64.8 19.94 47.81 C11.11 31.23 -2.4 18.84 -20.19 12.75 C-40.83 6.77 -62.82 11.33 -80 24 Z " fill="#0F1012" transform="translate(1043,124)"/>
<path d="M0 0 C-1.32 9.23 -5.68 16.87 -10 25 C-10.46 25.87 -10.92 26.75 -11.39 27.64 C-16.34 36.8 -21.79 45.45 -29 53 C-29.55 53.65 -30.11 54.31 -30.68 54.98 C-33.95 57.82 -37.51 59.25 -41.5 60.88 C-42.76 61.39 -42.76 61.39 -44.05 61.92 C-107.02 87.21 -189.67 86.31 -252.5 59.95 C-257.12 57.84 -261.56 55.46 -266 53 C-266.99 52.5 -267.97 52 -268.99 51.48 C-279.06 46.31 -290.4 39.85 -295 29 C-296.38 23.65 -297 18.51 -297 13 C-293.67 14 -290.71 15.15 -287.62 16.75 C-248.92 36.39 -202.98 40.23 -160.31 40.31 C-159.36 40.32 -158.4 40.32 -157.41 40.32 C-138.83 40.36 -120.57 38.89 -102.25 35.75 C-100.98 35.53 -99.72 35.32 -98.42 35.1 C-76.56 31.27 -52.75 26.87 -33.08 16.09 C-30.93 14.96 -28.79 14.18 -26.5 13.38 C-20.26 11 -14.75 7.29 -9.16 3.71 C-8.4 3.23 -7.65 2.76 -6.88 2.27 C-6.2 1.83 -5.53 1.39 -4.83 0.95 C-3 0 -3 0 0 0 Z " fill="#0F1012" transform="translate(357,250)"/>
<path d="M0 0 C3.52 2.39 5.6 5.53 8 9 C9.54 10.98 11.08 12.96 12.62 14.94 C13.47 16.05 14.32 17.16 15.16 18.28 C18.41 22.55 21.7 26.77 25 31 C31.1 38.84 37.17 46.7 43.22 54.59 C47.86 60.65 52.53 66.69 57.25 72.69 C66.69 84.67 76.05 96.71 85.29 108.85 C87.91 112.3 90.56 115.72 93.26 119.11 C93.77 119.75 94.29 120.4 94.82 121.07 C95.79 122.28 96.77 123.5 97.75 124.71 C101 128.78 101 128.78 101 131 C101.99 131.33 102.98 131.66 104 132 C104.33 88.77 104.66 45.54 105 1 C108.16 -0.58 111.53 -0.18 115 -0.19 C115.74 -0.2 116.47 -0.21 117.23 -0.22 C119.16 -0.23 121.08 -0.12 123 0 C125 2 125 2 125.25 4.9 C125.24 6.15 125.24 7.4 125.24 8.69 C125.24 9.39 125.24 10.09 125.25 10.8 C125.25 13.15 125.24 15.49 125.23 17.83 C125.23 19.51 125.23 21.18 125.23 22.86 C125.23 27.42 125.22 31.97 125.2 36.53 C125.19 41.29 125.19 46.05 125.19 50.81 C125.18 59.83 125.16 68.84 125.14 77.86 C125.12 88.12 125.11 98.39 125.1 108.65 C125.08 129.77 125.04 150.88 125 172 C122.75 172.05 120.5 172.09 118.25 172.12 C117 172.15 115.74 172.17 114.45 172.2 C110.45 171.97 108.26 171.34 105.53 168.43 C105.07 167.82 104.62 167.21 104.15 166.58 C103.38 165.55 103.38 165.55 102.59 164.49 C102.04 163.75 101.5 163.01 100.94 162.25 C99.77 160.7 98.61 159.14 97.44 157.59 C96.86 156.81 96.28 156.04 95.68 155.24 C93.29 152.06 90.84 148.93 88.38 145.81 C87.93 145.25 87.48 144.68 87.02 144.09 C85.68 142.4 84.34 140.7 83 139 C75.9 130.01 68.88 120.95 61.93 111.84 C59.22 108.28 56.48 104.74 53.72 101.21 C51.98 98.97 50.25 96.72 48.52 94.47 C44.54 89.29 40.54 84.13 36.5 79 C30.11 70.88 23.81 62.7 17.55 54.48 C16.97 53.7 16.38 52.93 15.77 52.13 C14.61 50.61 13.45 49.09 12.29 47.56 C11.76 46.87 11.23 46.17 10.69 45.46 C10.22 44.84 9.75 44.22 9.26 43.58 C7.94 41.87 7.94 41.87 6 40 C5.67 83.56 5.34 127.12 5 172 C-0.94 172 -6.88 172 -13 172 C-15 170 -15 170 -15.25 167.11 C-15.24 165.87 -15.24 164.63 -15.24 163.34 C-15.24 162.65 -15.24 161.96 -15.25 161.25 C-15.25 158.92 -15.24 156.59 -15.23 154.26 C-15.23 152.59 -15.23 150.93 -15.23 149.26 C-15.23 144.73 -15.22 140.2 -15.2 135.67 C-15.19 130.94 -15.19 126.21 -15.19 121.48 C-15.18 112.51 -15.16 103.55 -15.14 94.59 C-15.12 84.38 -15.11 74.18 -15.1 63.98 C-15.08 42.98 -15.04 21.99 -15 1 C-10.42 -1.29 -4.92 -0.86 0 0 Z " fill="#0F1012" transform="translate(765,117)"/>
<path d="M0 0 C19.7 6.49 52.11 17.82 62.22 37.36 C64.37 44.66 63.91 52.04 60.5 58.81 C59.69 60.22 58.87 61.63 58 63 C57.34 63 56.68 63 56 63 C55.63 63.87 55.63 63.87 55.25 64.76 C47.62 78.45 28.71 84.1 14.68 88.21 C-29.92 100.76 -83.93 95.99 -124.86 74 C-134.29 68.69 -145.07 62.05 -149.38 51.69 C-150.57 44.64 -149.95 39.91 -145.94 33.88 C-138.27 23.88 -127.02 16.01 -115 12 C-114.01 12.66 -113.02 13.32 -112 14 C-112.23 14.91 -112.45 15.81 -112.69 16.75 C-113.68 23.96 -111.4 31.59 -107.19 37.44 C-96.88 49.66 -82.33 55.94 -66.73 57.69 C-45.88 59.44 -25.2 55.54 -7.93 43.29 C-6 42 -6 42 -4 42 C-3.67 41.01 -3.34 40.02 -3 39 C-2.34 39 -1.68 39 -1 39 C-0.63 38.23 -0.63 38.23 -0.25 37.44 C0.81 35.38 1.91 33.38 3.06 31.38 C6.61 25.2 6.62 20.1 6 13 C5.02 10.06 3.62 7.62 2 5 C1.31 3.34 0.63 1.68 0 0 Z " fill="#0F1012" transform="translate(251,44)"/>
<path d="M0 0 C3.12 2.47 4.51 4.16 6.33 7.8 C2.7 11.76 -0.93 15.72 -4.67 19.8 C-6.32 18.9 -7.97 17.99 -9.67 17.05 C-10.69 16.51 -11.7 15.96 -12.74 15.39 C-14.41 14.49 -16.08 13.57 -17.73 12.62 C-32.49 4.48 -51.15 4.54 -67.13 8.4 C-82.47 13.04 -94.38 21.89 -103.67 34.8 C-104.14 35.44 -104.62 36.07 -105.1 36.73 C-115.43 51.74 -117.03 71.86 -114.26 89.43 C-113.19 94.08 -111.56 98.42 -109.67 102.8 C-109.3 103.74 -108.93 104.68 -108.54 105.64 C-101.63 121.3 -85.87 131.92 -70.69 138.69 C-64.08 141.22 -57.63 141.34 -50.61 141.3 C-49.42 141.3 -48.22 141.29 -46.99 141.29 C-31.12 140.97 -17.86 136.45 -5.92 125.62 C2 117.06 5.65 106.96 8.33 95.8 C8.66 94.47 8.99 93.14 9.33 91.8 C8.73 91.8 8.13 91.79 7.52 91.78 C1.32 91.69 -4.87 91.59 -11.07 91.49 C-13.38 91.45 -15.7 91.41 -18.01 91.38 C-21.34 91.34 -24.66 91.28 -27.98 91.22 C-29.02 91.21 -30.06 91.2 -31.13 91.18 C-32.09 91.16 -33.05 91.14 -34.04 91.12 C-34.89 91.11 -35.74 91.1 -36.61 91.08 C-38.67 90.8 -38.67 90.8 -40.67 88.8 C-40.9 85.62 -40.9 85.62 -40.86 81.8 C-40.85 80.55 -40.85 79.29 -40.84 77.99 C-40.67 74.8 -40.67 74.8 -39.67 72.8 C-30.97 72.76 -22.27 72.72 -13.57 72.7 C-9.53 72.69 -5.49 72.68 -1.45 72.65 C2.45 72.63 6.34 72.62 10.24 72.61 C11.73 72.61 13.22 72.6 14.71 72.59 C16.79 72.58 18.87 72.58 20.95 72.58 C22.14 72.57 23.32 72.57 24.54 72.56 C27.33 72.8 27.33 72.8 29.33 74.8 C31.46 95.28 25.23 116.92 12.42 132.94 C6.1 140.51 -0.99 147.01 -9.67 151.8 C-10.33 151.8 -10.99 151.8 -11.67 151.8 C-11.67 152.46 -11.67 153.12 -11.67 153.8 C-15.15 154.96 -18.63 156.1 -22.11 157.24 C-23.08 157.57 -24.06 157.89 -25.06 158.23 C-46.11 165.06 -69.42 162.59 -89.13 152.72 C-96.63 148.81 -103.43 144.57 -109.67 138.8 C-110.61 137.95 -111.54 137.09 -112.51 136.21 C-118.42 130.64 -122.95 125.01 -126.67 117.8 C-127.11 117.03 -127.55 116.25 -128 115.45 C-138.87 95.38 -140.24 70.13 -133.9 48.47 C-130.48 38.23 -126.3 29.33 -119.67 20.8 C-118.76 19.5 -118.76 19.5 -117.82 18.17 C-103.93 -0.61 -81.69 -9.44 -59.51 -13.82 C-39.57 -16.46 -16.55 -11.83 0 0 Z " fill="#0F1012" transform="translate(567.67236328125,129.19580078125)"/>
<path d="M0 0 C0.94 -0 1.87 -0 2.83 -0.01 C5.93 -0.01 9.04 -0.01 12.14 -0 C14.28 -0 16.43 -0.01 18.58 -0.01 C23.08 -0.01 27.58 -0.01 32.09 -0 C37.87 0 43.66 0 49.45 -0 C53.88 -0.01 58.32 -0.01 62.75 -0 C64.88 -0 67.02 -0 69.15 -0.01 C72.13 -0.01 75.11 -0.01 78.08 0 C78.97 -0 79.86 -0 80.78 -0.01 C86.86 0.02 86.86 0.02 87.98 1.13 C87.98 7.4 87.98 13.67 87.98 20.13 C61.91 20.13 35.84 20.13 8.98 20.13 C9.31 38.61 9.64 57.09 9.98 76.13 C14.21 76.11 18.45 76.08 22.81 76.06 C26.18 76.05 29.56 76.04 32.93 76.03 C36.49 76.02 40.06 76 43.62 75.98 C47.7 75.95 51.79 75.94 55.87 75.93 C57.15 75.92 58.44 75.91 59.75 75.9 C60.94 75.9 62.12 75.9 63.33 75.9 C64.38 75.9 65.42 75.89 66.5 75.89 C68.98 76.13 68.98 76.13 70.98 78.13 C70.98 83.41 70.98 88.69 70.98 94.13 C40.29 94.62 40.29 94.62 8.98 95.13 C9.12 104.35 9.27 113.57 9.41 123.07 C9.46 125.98 9.5 128.9 9.54 131.9 C9.58 134.19 9.62 136.49 9.66 138.78 C9.68 140.59 9.68 140.59 9.71 142.43 C9.73 143.57 9.75 144.7 9.77 145.88 C9.79 147.36 9.79 147.36 9.82 148.88 C9.73 151.1 9.73 151.1 10.98 152.13 C13.4 152.25 15.8 152.3 18.23 152.32 C18.99 152.33 19.75 152.34 20.54 152.34 C22.19 152.36 23.84 152.38 25.5 152.39 C28.11 152.41 30.72 152.44 33.34 152.47 C38.88 152.53 44.43 152.58 49.98 152.63 C56.4 152.69 62.83 152.75 69.25 152.82 C71.83 152.85 74.41 152.87 77 152.89 C78.57 152.91 80.14 152.92 81.72 152.94 C82.44 152.94 83.17 152.95 83.91 152.95 C88.86 153.02 88.86 153.02 89.98 154.13 C89.98 160.07 89.98 166.01 89.98 172.13 C56.98 172.13 23.98 172.13 -10.02 172.13 C-11.47 169.23 -11.15 166.71 -11.14 163.47 C-11.15 162.44 -11.15 162.44 -11.15 161.38 C-11.15 159.05 -11.14 156.72 -11.14 154.39 C-11.14 152.72 -11.14 151.06 -11.14 149.39 C-11.14 144.86 -11.13 140.33 -11.13 135.8 C-11.12 131.07 -11.12 126.34 -11.12 121.61 C-11.11 112.64 -11.11 103.68 -11.1 94.72 C-11.08 84.51 -11.08 74.31 -11.07 64.11 C-11.06 43.11 -11.05 22.12 -11.02 1.13 C-7.62 -0.57 -3.74 -0.01 0 0 Z " fill="#0F1012" transform="translate(634.023681640625,116.87060546875)"/>
<path d="M0 0 C6.05 -0.07 12.09 -0.13 18.14 -0.16 C20.19 -0.18 22.24 -0.2 24.3 -0.23 C53.49 -0.59 53.49 -0.59 64 9 C64.55 9.45 65.11 9.9 65.68 10.37 C71.55 15.53 74.69 23.91 75.27 31.59 C75.66 43.08 74.42 52.59 66.31 61.44 C53.81 72.68 38.36 72.32 22.49 72.21 C19.78 72.19 17.07 72.19 14.37 72.19 C12.65 72.18 10.93 72.17 9.21 72.17 C8.4 72.17 7.59 72.17 6.75 72.16 C1.12 72.12 1.12 72.12 0 71 C-0.09 68.79 -0.12 66.58 -0.11 64.37 C-0.11 63.68 -0.11 62.98 -0.11 62.27 C-0.11 59.97 -0.11 57.67 -0.1 55.37 C-0.1 53.78 -0.09 52.19 -0.09 50.6 C-0.09 46.41 -0.08 42.21 -0.07 38.02 C-0.06 33.74 -0.05 29.47 -0.05 25.19 C-0.04 16.79 -0.02 8.4 0 0 Z " fill="#ffffff" transform="translate(1138,137)"/>
<path d="M0 0 C4.71 5.19 7 9.99 7 17 C5.36 23.39 0.68 27.86 -4.58 31.57 C-18.65 39.86 -37.32 38.57 -52.7 34.98 C-62.86 31.97 -74.37 26.56 -81 18 C-81.71 14.29 -81.22 12.47 -79.62 9.06 C-72.49 -0.36 -57.32 -6.66 -45.79 -8.32 C-30.04 -9.8 -12.92 -10.72 0 0 Z " fill="#0F1012" transform="translate(245,49)"/>
<path d="M0 0 C-3.36 3.7 -7.1 6.2 -11.31 8.81 C-12.01 9.25 -12.72 9.69 -13.44 10.14 C-20.38 14.36 -27.55 17.78 -35 21 C-35.81 21.38 -36.62 21.75 -37.46 22.14 C-73.87 38.21 -117.98 35.96 -154.56 22.34 C-164.1 18.63 -173.08 14 -182 9 C-181.34 8.34 -180.68 7.68 -180 7 C-177.27 7.46 -174.68 8.02 -172 8.69 C-153.35 12.95 -134.1 14.53 -115 15 C-113.84 15.03 -113.84 15.03 -112.66 15.07 C-78.01 15.93 -40.79 12.13 -7.79 0.91 C-5.01 0 -2.9 -0.17 0 0 Z " fill="#0F1012" transform="translate(300,329)"/>
</svg>
